<?xml version="1.0" encoding="UTF-8"?>
<svg version="1.1" xmlns="http://www.w3.org/2000/svg" width="64" height="64">
<path d="M0 0 C21.12 0 42.24 0 64 0 C64 21.12 64 42.24 64 64 C42.88 64 21.76 64 0 64 C0 42.88 0 21.76 0 0 Z " fill="#0B1024" transform="translate(0,0)"/>
<path d="M0 0 C1.32 0 2.64 0 4 0 C4.99862699 7.36487404 5.10331031 14.57313685 5 22 C6.19238281 21.566875 7.38476562 21.13375 8.61328125 20.6875 C10.1795982 20.12475139 11.74600939 19.56226502 13.3125 19 C14.09818359 18.71382812 14.88386719 18.42765625 15.69335938 18.1328125 C16.45068359 17.86210937 17.20800781 17.59140625 17.98828125 17.3125 C18.68477783 17.06113281 19.38127441 16.80976563 20.09887695 16.55078125 C22 16 22 16 25 16 C25 17.32 25 18.64 25 20 C13.47835991 25.37129841 13.47835991 25.37129841 8 27 C9.7199791 32.08391613 12.7787547 36.05099302 15.98632812 40.27148438 C19.04908735 44.48832678 19.04908735 44.48832678 18.76953125 47.40234375 C18.51558594 47.92957031 18.26164062 48.45679688 18 49 C14.84593234 47.65066174 13.21814113 46.33669228 11.2734375 43.5234375 C10.7990625 42.853125 10.3246875 42.1828125 9.8359375 41.4921875 C9.35382812 40.79351562 8.87171875 40.09484375 8.375 39.375 C7.40961862 37.98281843 6.43855216 36.59455606 5.4609375 35.2109375 C5.03603027 34.59524902 4.61112305 33.97956055 4.17333984 33.34521484 C3.7861377 32.90129395 3.39893555 32.45737305 3 32 C2.34 32 1.68 32 1 32 C-0.4178495 33.61248656 -0.4178495 33.61248656 -1.8203125 35.71875 C-2.35527344 36.48574219 -2.89023437 37.25273438 -3.44140625 38.04296875 C-3.99699219 38.85378906 -4.55257813 39.66460937 -5.125 40.5 C-5.96998047 41.71623047 -5.96998047 41.71623047 -6.83203125 42.95703125 C-8.22738744 44.96729017 -9.61634849 46.98167493 -11 49 C-12.32 48.67 -13.64 48.34 -15 48 C-13.37885498 43.20178341 -10.70723241 39.3327141 -7.875 35.1875 C-7.40707031 34.49462891 -6.93914063 33.80175781 -6.45703125 33.08789062 C-5.30887563 31.38908895 -4.15500633 29.69415136 -3 28 C-5.06175364 27.040062 -7.12443469 26.08211576 -9.1875 25.125 C-10.33605469 24.59132813 -11.48460937 24.05765625 -12.66796875 23.5078125 C-15.42294137 22.26113087 -18.18161677 21.09338408 -21 20 C-21 18.68 -21 17.36 -21 16 C-16.44579198 16.60722774 -12.51687742 17.80897946 -8.25 19.5 C-7.12078125 19.9434375 -5.9915625 20.386875 -4.828125 20.84375 C-3.19663059 21.51076982 -1.57649978 22.21175011 0 23 C0 15.41 0 7.82 0 0 Z " fill="#ECEC5E" transform="translate(30,6)"/>
</svg>
